<svg height='300px' width='300px' fill="#111111" xmlns="http://www.w3.org/2000/svg" xmlns:xlink="http://www.w3.org/1999/xlink" version="1.1" x="0px" y="0px" viewBox="0 0 700 700" style="enable-background:new 0 0 700 700;" xml:space="preserve"><g><path d="M274.3,27.7c-14.3,17.1-24.5,32.1-31.4,45.8c-3.4,6.9-5.8,12.8-5.4,13.1c0.2,0.1,3.6,1.8,7.4,3.8   c18,9.3,31.7,22.9,36.2,36.2c3,8.6,3.3,10.9,3.2,23.1c0,12.8-1.2,21.8-4.2,32.1c-0.2,0.7,1.2,1.8,5.9,4.3   c10.1,5.5,12.1,6.7,19.2,11.4c4.6,3.1,9.2,6.6,13.4,10.3c2.2,2,4,3.2,4,2.8c0-1.4,6.9-14.5,10.6-20.1c1.9-3,6.3-9.2,9.8-13.7   s6.2-8.4,6.2-8.6s-1.1-1.9-2.6-3.7c-7.2-9.6-13.6-20.6-16.9-29.1c-7.4-19.1-4.9-37.1,8-57.3c3.4-5.4,5.4-8,9.4-12.5l2.4-2.7   l-3.9-3.7c-7.9-7.7-20.8-16.8-35.8-25.3c-6.6-3.7-27.3-14.2-28.2-14.2C281.4,19.5,278.2,23.2,274.3,27.7z"></path><path d="M409.6,24.6c-23,11.3-42,23.6-53.2,34.4l-3.9,3.7l2.4,2.7c11.9,13.4,19.7,29.1,21.4,43.5c1.9,15.4-5.6,35.2-20.9,55.3   c-1.4,1.9-2.6,3.6-2.6,3.7s2.8,4,6.2,8.6s7.8,10.7,9.8,13.7c3.7,5.6,10.6,18.7,10.6,20.1c0,0.4,1.8-0.8,4.1-2.8   c4.2-3.7,8.7-7.2,13.4-10.3c7.1-4.7,9-5.8,19.2-11.4c4.7-2.5,6.2-3.6,5.9-4.3c-3-10.3-4.2-19.2-4.2-32.1   c-0.1-12.2,0.2-14.5,3.2-23.1c2.4-6.8,6.5-13,13.3-19.8c6.5-6.5,14-11.8,22.9-16.4c3.8-2,7.1-3.7,7.4-3.8c0.2-0.2-0.5-2.4-1.6-4.9   c-5.6-13.1-12.7-24.8-24.7-40.8c-4.5-6-17.3-21.4-17.8-21.4C420.2,19.5,415.4,21.8,409.6,24.6z"></path><path d="M346.7,69.3c-8.8,10.9-13.6,19.8-17.3,32.1c-1.3,4.2-1.5,6.4-1.6,12.1c0,10.2,2.1,18.3,7.5,28.9   c3.8,7.4,14.5,23.5,15.6,23.5c0.4,0,5.7-7.1,9.2-12.5c10.8-16.3,15.7-32.6,13.7-45.3c-0.9-5.5-4.1-15.4-6.9-20.9   c-3.6-7.1-14-21.6-16-22.4C350.8,64.7,348.8,66.7,346.7,69.3z"></path><path d="M151.8,85.1c-4.1,13.9-6.6,25.3-8.8,39c-1.3,8.4-2.4,31-1.4,31.1c0.3,0.1,2.5,0.1,4.9,0.2c20.7,0.8,38.6,6.8,49.2,16.6   c10.9,10.1,17.7,23.9,22.4,46.1c0.8,3.9,1.7,7.3,1.8,7.4c0.1,0.2,4.4,0.7,9.5,1.1c17.3,1.6,30.9,4.2,39.7,7.7c0.8,0.3,0.9-0.7,1-7   c0.1-9,1.3-17.8,4.5-31.8c1.3-5.8,2.4-10.9,2.4-11.2c0-0.4-1.4-1.3-3.1-2.1c-3.7-1.8-15.9-9.7-20.1-13.1   c-11.2-8.9-18.3-18-21.9-28.2c-4.2-11.6-4.1-29.5,0.2-45c1.9-7.1,2.2-8.4,1.9-8.4c-0.1,0-2.5-0.8-5.3-1.7   c-14.8-5.2-36.6-8.7-58.2-9.4c-4.9-0.2-10.6-0.5-12.4-0.6l-3.4-0.2L151.8,85.1z"></path><path d="M534.3,76.2c-24.6,1-45.6,4.3-60.9,9.6c-2.8,1-5.2,1.7-5.3,1.7c-0.3,0,0,1.3,1.9,8.4c4.3,15.5,4.4,33.3,0.2,45   c-3.6,10.2-10.7,19.4-21.9,28.2c-4.2,3.4-16.3,11.3-20.1,13.1c-1.7,0.8-3.1,1.7-3.1,2.1c0,0.3,1.1,5.3,2.4,11.2   c3.2,14,4.4,22.9,4.5,31.8c0.1,6.3,0.2,7.3,1,7c8.3-3.4,20.3-5.8,35.2-7.2c5.7-0.5,11.2-1.1,12.2-1.3c1.8-0.2,1.8-0.3,3.5-8   c6.2-28,16.5-44.7,32.9-53.1c11.4-5.8,23.9-8.9,38.8-9.4c2.4-0.1,4.6-0.2,4.9-0.2s0.4-4.9,0.2-11.7c-0.5-17.7-3.9-35.9-10.4-58.5   c-2.2-7.4-3-9.5-3.8-9.3C545.9,75.7,540.5,76,534.3,76.2z"></path><path d="M236.3,89.2c-0.5,0.9-2.8,9-3.9,14.1c-1.6,7.4-1.6,26.3,0.1,32.3c3.4,12.8,11.4,23.6,24.8,33.5c5.8,4.3,20.1,13,20.5,12.5   c0.4-0.5,2.8-12.5,3.7-18c1.1-7.7,1.3-20.6,0.3-25.9c-1.6-8.6-5.4-17.7-9.5-22.6c-7.8-9.5-20-19-30.3-23.6   c-1.9-0.9-3.9-1.8-4.5-2.1S236.4,89,236.3,89.2z"></path><path d="M459.6,91.7c-9.9,4.9-17.5,10.4-24.5,17.7c-5.4,5.5-6.5,7.1-9.2,12.1c-7.3,13.5-8.3,30.8-3,54.2c0.7,3.1,1.3,5.8,1.4,5.9   c0.4,0.5,14.7-8.3,20.5-12.5c13.4-9.8,21.4-20.7,24.8-33.5c1.6-6,1.6-24.9,0.1-32.3c-1.3-6-3.4-13.4-3.9-14   C465.5,89.1,462.7,90.1,459.6,91.7z"></path><path d="M130.3,158.5c-15.2,1.7-27.9,5.1-49.4,12.9c-5.8,2.1-18.3,7.3-18.9,7.8c-0.5,0.5,0.7,10.2,2.6,21.5   c3.8,21.6,8.2,37.3,14.2,50.3c1.5,3.1,2.8,5.8,2.9,6c0.2,0.1,1.1-0.2,2.3-0.7c4.2-1.9,12.5-4.7,18.3-6c16.2-3.9,30.5-3,41.5,2.3   c12.2,5.9,25.7,18.7,35.6,33.6c1.3,1.9,2.4,3.5,2.5,3.5s4.5-1.4,9.8-3.3c15.8-5.4,25.7-7.8,35.2-8.6l4.6-0.4l-2-4.3   c-3.9-8.6-7.2-20.3-10.4-36.2l-1.6-8.6l-7.5-0.8c-15-1.5-30-5.6-39-10.6c-15.9-9-26.5-26.5-30.5-50.9c-1.3-7.6-1.5-8.4-2.6-8.4   C137.2,157.7,133.8,158,130.3,158.5z"></path><path d="M142,161.6c0.6,6.4,3.1,16.3,5.7,23.2c8.7,22.2,22.2,33,47.9,38.2c7.2,1.4,20.7,3.1,21.2,2.6c0.1-0.1-0.4-3.6-1.3-7.7   c-1.6-8.2-5.2-19.6-8.2-25.9c-8-17-20.6-26.8-41.2-31.8c-4.8-1.1-16.5-2.7-21-2.7h-3.6L142,161.6z"></path><path d="M545.8,158.5c-18.5,2.5-33.5,9.3-41.7,19.1c-6.3,7.5-10,14.4-13.8,26c-2.2,6.8-5.6,21.5-5.1,22c0.5,0.5,14-1.1,21.2-2.6   c25.7-5.2,39.2-16,47.9-38.2c2.7-6.9,5.1-16.8,5.7-23.2l0.4-4l-4.5,0.1C553.5,157.7,548.9,158,545.8,158.5z"></path><path d="M562.7,158.9c0,0.8-0.7,4.9-1.4,9.2c-4.5,23.6-14.7,40-30.2,48.7c-9,5-24,9.1-39,10.6l-7.5,0.8l-1.6,8.6   c-3.1,15.9-6.5,27.6-10.4,36.2l-2,4.3l4.6,0.4c9.4,0.8,19.4,3.2,35.2,8.6c5.2,1.8,9.7,3.3,9.8,3.3c0.1,0,1.1-1.4,2.2-3.1   c3.6-5.5,11.1-14.7,16.9-20.4c8.8-8.6,18.4-14.5,28-16.9c5.1-1.3,15.4-1.7,22.6-1c7.8,0.9,21,4.6,28.2,8c1.1,0.5,2.1,0.8,2.3,0.7   c0.1-0.2,1.4-2.8,2.9-6c4.9-10.6,9-23.8,12.1-39.4c3.1-15.4,5.5-31.6,4.7-32.4c-0.3-0.3-3.9-1.9-8-3.6c-23.5-9.5-44.5-15.6-60-17.1   c-2-0.2-4.9-0.5-6.5-0.7C562.8,157.4,562.7,157.5,562.7,158.9z"></path><path d="M350.1,171.1c-0.4,0.5-3,4-5.9,7.8s-6.9,9.5-8.9,12.6c-4,6.1-10.8,19.3-10.8,21c0,0.6,1.4,3,3.3,5.4   c5.6,7.4,9.2,15.9,9.7,23.3c0.1,2.2,0.4,8,0.6,12.8c0.1,4.9,0.5,11.2,0.7,14.1c0.4,4.6,0.3,5.2-0.6,5.2c-0.5,0-1-0.4-1-0.8   s-0.2-2.9-0.5-5.5c-0.4-2.7-0.8-9.5-1-15.1c-0.4-12.5-1.4-17.8-4.6-24.1c-2.8-5.7-7.3-12-7.8-11c-1.3,2.4-2.1,8.1-2,14.9   c0,8.1,0.7,10.8,5.4,22c3.1,7.3,6.4,16.6,6.8,18.8c0.2,1.5,0.1,2-0.5,2c-0.5,0-1.5-1.8-2.6-5c-1.7-5.1-6.2-16.6-8-20.3   c-4.2-9-4.7-21.8-1.4-33.2c0.5-1.9,0.4-2.2-1.7-4.4c-6.6-6.8-22.6-17.7-36.1-24.5l-3.7-1.9l-0.6,2c-1.2,3.9-4.9,22.1-5.8,28.8   c-0.9,7-1.2,17.2-0.5,19c0.2,0.5,1.8,1.7,3.5,2.5c6.6,3.3,13.7,9.1,17.4,14.1c2.4,3.3,16.8,32.1,16.4,33c-0.2,0.4-0.5,0.7-0.8,0.5   c-0.8-0.5-4.3-6.9-10.7-19.6c-7.2-14.5-11.5-19.3-22.2-25.4l-3.5-2l0.4,2.7c1.1,6.9,4.8,16,8.3,20.4c0.7,0.8,6.5,6.9,12.9,13.4   c10.4,10.6,13,13.7,11.2,13.7c-0.2,0-6.3-5.8-13.4-12.8c-10.3-10.3-13.3-13.6-15.1-16.9c-2.5-4.6-5.5-13.5-6.2-18.3l-0.4-3.1   l-4.3-1.5c-8.3-3-22.3-5.6-35.7-6.7c-10.6-0.8-9.9-0.8-9.9,0.3c0,0.6,0.8,5.2,1.8,10.1c3,15.1,7.8,30.2,11.5,36.1   c1.1,1.9,1.4,2,4.5,2c4,0,11,1.3,15.6,3c6.6,2.4,9.2,4.2,22,15.1c1.7,1.5,5.3,4.3,8,6.3c2.8,2.1,4.9,4.1,4.9,4.6   c0,0.6-0.2,1.1-0.5,1.1c-0.7,0-8.5-5.9-17.4-13.2c-10.1-8.3-14.4-11-20.9-12.7c-5.7-1.6-11.8-2.4-13-1.9c-1,0.5,3.4,6.6,8.1,10.9   c6.1,5.7,8.6,7,25.6,13.3c8.9,3.3,15.7,6.4,15.7,7.2c0,1.3-1.3,1.1-6.1-1c-2.8-1.2-9.8-3.9-15.6-6c-5.8-2.1-12-4.7-13.8-5.8   c-4.3-2.5-11.8-10-14.9-14.7c-1.3-2-2.6-3.8-3-4c-1.1-0.7-16.9,1.6-23.9,3.5c-4.9,1.4-25.3,8.2-25.3,8.4s4.1,6.2,9.3,13.6   c6.7,9.3,17.6,21.3,22.4,24.4c1.1,0.8,1.7,0.7,4.5-0.4c4.9-1.9,13.6-3.6,18.5-3.6c5.2,0,8.2,0.6,19.5,3.9   c4.8,1.4,11.4,3.1,14.7,3.9c5.5,1.3,6.9,2.1,4.9,2.8c-1.1,0.4-11-1.9-22.6-5.3c-9.3-2.7-18.3-3.6-24.2-2.4   c-5.4,1.1-11.4,3.1-11.4,3.7c0,0.9,7.7,4.9,13.2,6.9l5.2,1.9l10.9-0.2c22-0.4,28.8-0.4,29.1,0.3c0.1,0.4-4.3,0.9-13.2,1.5   c-16.9,1.1-23.9,1.1-28.5,0c-4.1-1-12.4-4.6-16.7-7.4c-3.3-2.2-3.1-2.2-10.1,2c-7.8,4.7-14.6,10.1-27.3,21.8l-5.8,5.4l4.3,2.8   c12.1,7.7,25.1,14.3,33.9,17.2c3.4,1.1,6.6,2.1,7,2.1s2.4-1.5,4.3-3.3c9.8-9.1,17.4-12.3,33.3-14.2c3.3-0.4,9.3-1.3,13.3-2.1   c6.8-1.3,9.3-1.2,7.8,0.2c-0.5,0.6-14.4,3.3-20.1,4c-11.7,1.4-19,3.6-25,7.7c-4.1,2.7-9.3,7.4-9.3,8.3c0,0.8,8.7,1.4,14,1   c5.7-0.5,12.3-2.6,19.1-6.3c8.4-4.5,20.3-10.3,22-10.8c1.1-0.2,1.6-0.1,1.6,0.5c0,0.5-3.1,2.4-8.3,4.9c-4.6,2.2-10.4,5.2-12.8,6.6   c-10.1,5.8-18.6,8-28.3,7.2c-11.4-0.8-9.8-1.4-14.5,5.1c-6.6,9.2-20.3,37.6-18.6,38.6c0.8,0.5,8.3,1.6,17.7,2.5   c8.1,0.8,29.6,0.5,31.3-0.5c0.5-0.3,1.9-2.7,3.1-5.2s3-6.2,4-8.1c3-5.1,10.3-12,16.2-15.5c2.8-1.6,8.9-5.5,13.5-8.6   c4.6-3.1,8.6-5.6,8.9-5.6s0.5,0.4,0.5,0.8c0,0.9-5.2,4.8-12.8,9.7c-16.1,10.3-19.1,12.7-23.6,19.6c-2.4,3.6-6.1,11.3-5.6,11.8   c0.4,0.4,8.8-2.6,12.5-4.5c6.7-3.3,10.8-7.4,22.2-21.8c7.3-9.2,9.6-11.6,10.8-11.2c0.9,0.4,0.9,0.5,0.1,1.4   c-0.5,0.5-2.7,3.1-4.8,5.5c-3.9,4.6-7.7,9.4-12.4,15.7c-5.8,7.8-15,13.6-27,16.9c-1.6,0.4-3,1.2-3.1,1.7   c-2.1,7.1-3.8,23.3-3.6,34.4c0.1,3.8,0.1,8.8,0.2,11.1l0.1,4.1l2.3-0.4c1.2-0.2,7.4-2.1,13.7-4.2c11.6-3.9,21.6-8.2,27.6-12.1   l3.2-2.1l0.4-8.3c0.5-13.2,1.9-17,11.5-31.2c3.6-5.3,7.5-11.5,8.9-13.7c2.2-3.7,4.1-5.3,4.1-3.4c0,1-7.5,13.3-12.4,20.4   c-7.8,11.3-9.9,17.5-9.9,29.1v5.4l3.3-2.9c8.6-7.4,13.4-16.3,16.6-31c0.6-2.8,2.9-10.8,4.9-17.4c0.7-2.1,2.4-2.7,2.4-0.8   c0,0.6-0.4,2.3-1,3.7s-2.4,8.4-4.2,15.5c-4.3,17.1-5.9,20.3-15,29.3l-6.6,6.6l0.7,3.9c1.6,9,6.3,22.4,13.1,36.4   c3.1,6.5,3.5,7.1,4.4,6.3c6.3-5.2,15.4-13.6,20.1-18.4c6-6.2,13.8-16,13.8-17.4c0-0.5-0.7-2.2-1.4-3.7c-2.4-4.8-4.6-12-5.3-17.3   c-0.7-5.4-0.5-7.3,2.1-22c0.8-4.5,1.7-10.1,1.9-12.4c0.5-5,1.3-7.2,2.2-6.6c0.9,0.5,0.3,6.5-2.1,19.5c-2.4,13.3-2.5,21.1-0.5,27.7   c1.4,4.8,4.3,11.5,4.9,11.5s3.5-6.7,4.9-11.5c1.9-6.6,1.8-14.4-0.5-27.7c-2.4-13-3-19-2.1-19.5c0.9-0.6,1.6,1.6,2.2,6.6   c0.2,2.3,1.1,7.9,1.9,12.4c2.7,14.7,2.8,16.6,2.1,22c-0.7,5.3-3,12.5-5.3,17.3c-0.8,1.6-1.4,3.3-1.4,3.7c0,1.4,7.8,11.3,13.8,17.4   c4.6,4.8,13.8,13.1,20.1,18.4c0.9,0.8,1.3,0.2,4.4-6.3c6.9-14.2,13.6-33.6,13.6-39.1c0-1.1-1.8-3.3-6.5-8   c-8.9-8.9-10.6-12.1-14.8-29.2c-1.8-7.1-3.7-14.1-4.2-15.5s-1-3.1-1-3.7c0-1.9,1.7-1.3,2.4,0.8c2,6.6,4.3,14.5,4.9,17.4   c3.2,14.7,8,23.6,16.6,31l3.3,2.9v-5.4c0-11.6-2.1-17.8-9.9-29.1c-5.2-7.5-12.4-19.4-12.4-20.4c0-1.9,1.9-0.4,4.1,3.4   c1.4,2.3,5.4,8.4,8.9,13.7c9.5,14.2,10.9,17.9,11.5,31.2l0.4,8.3l3.2,2.1c6,3.9,16,8.2,27.6,12.1c6.3,2.1,12.5,4,13.8,4.2l2.2,0.4   l0.1-4.1c0.1-2.3,0.1-7.3,0.2-11.1c0.2-11.2-1.5-27.3-3.6-34.4c-0.2-0.6-1.5-1.3-3.1-1.7c-11.5-3-21-8.9-26.9-16.8   c-4.6-6.3-8.5-11.2-12.4-15.7c-2.1-2.5-4.3-5-4.8-5.5c-0.8-1-0.8-1.1,0.2-1.4c0.7-0.3,1.3-0.1,1.9,0.6c0.4,0.6,1.8,2.2,3.1,3.6   c1.3,1.3,4.2,4.9,6.5,7.8c10.4,13.3,14.9,17.7,21.5,20.9c3.7,1.9,12.1,4.9,12.5,4.5c0.5-0.4-3.3-8.2-5.6-11.8   c-4.6-6.9-7.5-9.3-23.6-19.6c-7.7-4.9-12.8-8.8-12.8-9.7c0-0.5,0.2-0.8,0.5-0.8s4.3,2.5,8.9,5.6c4.6,3.1,10.7,6.9,13.5,8.6   c5.9,3.5,13.1,10.4,16.2,15.5c1.1,1.9,2.9,5.5,4,8.1s2.5,4.9,3.1,5.2c1.7,1,23.2,1.3,31.3,0.5c9.4-0.9,16.9-1.9,17.7-2.5   c1.7-1-11.9-29.4-18.6-38.6c-4.7-6.5-3.1-6-14.5-5.1c-9,0.7-16.8-1.1-25-5.5c-2.7-1.4-9.2-4.8-14.6-7.5c-6.1-3-9.8-5.2-9.8-5.7   c0-0.7,0.4-0.8,1.6-0.5c1.7,0.5,13.6,6.3,22,10.8c6.8,3.7,13.4,5.8,19.1,6.3c5.3,0.4,14-0.2,14-1c0-0.8-5.2-5.5-9.3-8.3   c-6-4.1-13.3-6.3-25-7.7c-5.8-0.7-19.6-3.4-20.1-4c-1.6-1.4,1-1.6,7.8-0.2c4,0.7,9.9,1.7,13.3,2.1c16,1.9,23.6,5.1,33.3,14.2   c2,1.8,3.9,3.3,4.3,3.3s3.6-1,7-2.1c8.7-2.9,21.8-9.5,33.9-17.2l4.3-2.8l-5.8-5.4c-12.7-11.8-19.5-17.1-27.3-21.8   c-7-4.2-6.8-4.2-10.1-2c-4.3,2.7-12.6,6.4-16.7,7.4c-4.6,1.1-11.6,1.1-28.5,0c-8.9-0.6-13.3-1.1-13.2-1.5c0.2-0.7,7.1-0.7,29.1-0.3   l10.9,0.2l5.2-1.9c5.5-2,13.2-6,13.2-6.9c0-0.6-6-2.5-11.4-3.7c-5.8-1.2-14.9-0.4-24.2,2.4c-11.6,3.4-21.5,5.7-22.6,5.3   c-2-0.7-0.6-1.5,5-2.8c3.2-0.8,9.8-2.5,14.6-3.9c11.3-3.3,14.2-3.9,19.5-3.9c4.9,0,13.6,1.7,18.5,3.6c2.8,1.1,3.4,1.1,4.5,0.4   c4.8-3.1,15.7-15.1,22.4-24.4c5.2-7.4,9.3-13.3,9.3-13.6s-20.4-7.1-25.3-8.4c-6.9-1.9-22.8-4.2-23.9-3.5c-0.4,0.2-1.7,2.1-3,4   c-3.1,4.6-10.6,12.1-14.9,14.7c-1.8,1.1-8,3.7-13.8,5.8s-12.8,4.8-15.6,6c-4.9,2.1-6,2.2-6,1c0-0.8,6.8-3.9,15.7-7.2   c17-6.3,19.5-7.5,25.6-13.3c4.6-4.3,9.1-10.4,8.1-10.9c-1.1-0.5-7.2,0.3-13,1.9c-6.5,1.7-10.9,4.4-20.9,12.7   c-8.4,7.1-16.6,13.2-17.4,13.3c-0.3,0-0.5-0.5-0.5-1.1c0.1-0.5,2.2-2.6,4.9-4.6c2.7-2,6.3-4.8,8-6.3c12.8-11,15.3-12.7,22-15.1   c4.6-1.6,11.5-3,15.6-3c3.1,0,3.4-0.1,4.5-2c3.7-6,8.4-21,11.5-36.1c2.4-12,2.5-11.4-1-11c-1.6,0.1-4.8,0.4-7.1,0.6   c-13.9,1.2-27.4,3.7-35.7,6.7l-4.3,1.5l-0.4,3.1c-0.7,4.8-3.7,13.6-6.2,18.3c-1.8,3.3-4.8,6.7-15.1,16.9   c-7.1,7.1-13.1,12.8-13.4,12.8c-1.8,0,0.8-3.2,11.2-13.7c6.5-6.5,12.2-12.5,12.9-13.4c3.4-4.4,7.1-13.6,8.3-20.4l0.4-2.7l-3.5,2   c-10.8,6.1-14.9,10.9-22.5,25.9c-9.3,18.3-10.6,20.4-11.2,18.6c-0.4-0.9,14-29.8,16.4-33c3.7-4.9,10.8-10.7,17.4-14.1   c1.7-0.8,3.3-2.1,3.5-2.7c0.7-1.7,0.2-12.2-0.8-20.4c-1-7.4-4.2-22.9-5.5-27.3l-0.6-2l-3.7,1.9c-13.5,6.8-29.5,17.7-36.1,24.5   c-2.1,2.2-2.2,2.5-1.7,4.4c3.3,11.4,2.8,24.2-1.4,33.2c-1.7,3.7-6.3,15.2-8,20.3c-1,2.9-2.1,5-2.5,5c-0.4,0-0.8-0.5-0.8-1.1   c0-1.4,4.1-12.9,8.2-23c3.8-9.3,4.6-13.9,4.2-21.4c-0.3-5-1.5-11.9-2.3-12.7c-0.5-0.5-5.5,7.1-7.7,11.5c-3.1,6.3-4.2,11.6-4.6,24.1   c-0.2,5.6-0.6,12.4-1,15.1c-0.3,2.7-0.5,5.1-0.5,5.5s-0.4,0.8-1,0.8c-0.9,0-1-0.6-0.6-5.2c0.2-2.9,0.5-9.2,0.7-14.1   c0.2-4.8,0.5-10.6,0.6-12.8c0.5-7.4,4.1-15.9,9.7-23.3c1.8-2.4,3.3-4.8,3.3-5.4c0-1.7-6.8-15-10.8-21.1c-3-4.5-11-15.5-14.9-20.4   C351,170,350.8,170,350.1,171.1z"></path><path d="M112.6,250.5c-2.2,0.2-5.5,0.8-7.2,1.1c-9,2.1-22.1,6.8-22.1,8c0,0.8,6.3,10.4,9.2,14.1c1.3,1.6,4.6,5.2,7.4,8   c13.5,13.3,25.6,18.3,43,17.5c9-0.4,16.6-1.9,28.2-5.6l8.6-2.8l-1.9-2.8c-7-10.3-17.4-21.9-24.3-27c-5.6-4.1-12.9-7.7-18.8-9.3   C129.4,250.2,119.1,249.7,112.6,250.5z"></path><path d="M573.5,250.4c-8.4,1-17.2,4.8-25,10.6c-7.1,5.2-17.2,16.5-24.3,27l-1.9,2.8l8.6,2.8c11.6,3.7,19.2,5.2,28.2,5.6   c17.4,0.8,29.5-4.2,43-17.5c2.8-2.7,6.1-6.3,7.4-8c3-3.7,9.2-13.2,9.2-14.1c0-1.3-14.4-6.4-23.5-8.2   C589.6,250.2,578.7,249.8,573.5,250.4z"></path><path d="M74.2,263.8c-15.1,8.8-29.5,20.6-47.2,38.8c-5.5,5.6-8.2,8.8-8,9.4c0.7,2.1,10.6,17.5,15.9,25c5.7,8,6.7,9.3,13.4,17.5   c3.9,4.7,16.3,17.2,18.8,18.8l1.6,1l6.2-6.1c20.1-19.9,40.7-27,62.2-21.5c9.3,2.4,21,7.5,31.1,13.5c2.7,1.7,5.2,3,5.4,2.9   c0.2-0.1,3.6-3.2,7.5-6.9c10.8-10.1,22.6-19.2,29.8-22.8c1.1-0.6,2.2-1.1,2.3-1.2c0.1-0.1-1.2-1.5-3-3.1   c-8.3-7.7-14.9-15.6-24.2-28.8c-5.2-7.5-5.8-8.1-6.7-7.2c-2,1.9-21.4,6.8-32.6,8c-9.3,1.1-22.5-0.5-27.9-3.3c-1-0.5-2-0.9-2.4-0.9   c-1.2,0-10.6-6.5-14.9-10.3c-7.1-6.2-14.4-15.1-19.4-23.7c-0.9-1.6-1.7-2.8-1.8-2.8S77.7,261.7,74.2,263.8z"></path><path d="M619.9,262.4c-1.5,2.6-5.4,8.5-6.3,9.6c-3.9,5-9.9,11.5-13.4,14.6c-4.3,3.8-13.7,10.3-14.9,10.3c-0.3,0-1.4,0.4-2.4,0.9   c-5.4,2.8-18.6,4.4-27.9,3.3c-11.2-1.3-30.6-6.1-32.6-8c-0.8-0.8-1.4-0.2-6.7,7.2c-9.3,13.2-15.9,21.1-24.2,28.8   c-1.7,1.6-3.1,3-3,3.1c0.1,0.1,1.1,0.6,2.3,1.2c7.9,3.9,20.6,13.9,32.4,25.3c2.4,2.3,4.6,4.3,4.8,4.4c0.3,0.1,2.8-1.2,5.5-2.9   c10.1-6,21.8-11.1,31.1-13.5c21.5-5.5,42.1,1.6,62.2,21.5l6.2,6.1l1.6-1c2.5-1.6,15-14.1,18.8-18.8c6.8-8.2,7.8-9.5,13.4-17.5   c5.4-7.5,15.1-22.9,16-25c0.2-0.7-2.7-3.9-9.5-10.9c-17.9-18-30.8-28.6-46-37.4C620.9,259.7,621.4,259.8,619.9,262.4z"></path><path d="M116.1,347.5c-8,1.1-18.1,5.5-27.1,11.8c-5.9,4.2-17.7,15-17.7,16.3c0,2.5,20.1,13.1,30.5,16c23,6.5,41.9-0.1,66.5-23   l3.7-3.5l-4.3-2.7C148,350.6,130.3,345.5,116.1,347.5z"></path><path d="M570,347.9c-9.5,1.5-23.4,7.2-35.3,14.4l-4.5,2.8l3.7,3.5c29.1,27.1,51.1,31.8,80.9,17.2c7.7-3.7,16-9,16-10.3   c0-1.3-11.8-12.1-17.7-16.3c-9.5-6.6-19.2-10.7-27.9-11.8C579.6,346.8,576.8,346.9,570,347.9z"></path><path d="M171.6,368.7c-3.4,3.7-13.2,11.6-19.2,15.5c-13.9,9.2-25.1,12.7-37.4,11.9c-13.2-0.8-26.8-5.8-40.4-15l-5.4-3.6l-1.4,1.7   c-7.6,9.3-16.8,25.5-23.9,42c-3,7.1-10.6,27.1-10.6,28c0,1.3,24.7,16.9,38.6,24.4c8.8,4.8,22.1,10.1,30.3,12.4   c2.1,0.6,2.4,0.5,2.8-0.7c5.3-13.6,7.1-17.3,11.4-24.1c12.5-19.5,27.6-27.9,52-29c5.4-0.2,19.5,0.6,24.2,1.4c1.9,0.4,3,0.3,3.4-0.2   c0.2-0.4,2.2-4.8,4.3-9.7c5.8-13.7,12.2-25.6,17.7-32.4c1-1.3,1.7-2.4,1.6-2.5c-0.1-0.1-1.4-0.5-3-0.9c-8.5-2.4-20.7-8.3-34.8-16.8   c-4-2.4-7.6-4.4-7.9-4.4C173.6,366.8,172.6,367.7,171.6,368.7z"></path><path d="M522,370.2c-13.1,8.1-26.5,14.7-35.6,17.4c-2,0.6-3.7,1.1-3.9,1.3c-0.1,0.1,0.6,1.1,1.6,2.4c5.4,6.9,11.9,18.8,17.7,32.4   c2.1,4.9,4.1,9.3,4.3,9.7c0.4,0.5,1.4,0.5,3.4,0.2c1.6-0.2,6.5-0.7,11-1c34.8-2.4,53.5,7.1,68.9,34.9c1.8,3.3,4,8.4,7.7,17.9   c0.5,1.2,0.7,1.3,2.8,0.7c8.3-2.2,21.5-7.6,30.3-12.4c13.9-7.5,38.6-23.1,38.6-24.4c0-0.9-7.6-20.9-10.6-28   c-7.1-16.5-16.3-32.7-23.9-42l-1.4-1.7l-5.4,3.6c-13.6,9.1-27.2,14.2-40.4,15c-12.3,0.8-23.5-2.8-37.4-11.9   c-6-3.9-15.7-11.8-19.2-15.5c-1-1-2.1-1.9-2.4-1.9C527.7,366.9,525,368.4,522,370.2z"></path><path d="M161.8,435c-10.5,1-19.7,4.3-27.7,9.9c-9.8,7-20.3,22.2-25.4,37c-1.4,4.1-1.6,5-0.8,5.4c3.3,2.1,28.2,3,36.5,1.3   c5.1-1,13.3-3.8,16.4-5.6c7.3-4.2,15.6-12.4,20.9-20.6c4.8-7.4,13.7-25.3,12.9-26.1c-0.1-0.1-4.2-0.6-8.9-1.1   C177.2,434.3,170.4,434.2,161.8,435z"></path><path d="M515,435.3c-4.1,0.5-7.6,1-7.7,1.1c-0.4,0.4,2.3,6.6,5.9,13.9c7.8,15.6,17.1,26.5,27.9,32.7c3.1,1.8,11.3,4.6,16.4,5.6   c8.3,1.7,33.2,0.8,36.5-1.3c1.8-1.1-4.6-16.2-11.2-26.1c-9.5-14.4-20.7-22.2-36.7-25.4C539.4,434.5,524.1,434.2,515,435.3z"></path><path d="M195.8,440.8c-9.9,23-21.9,38.3-35.8,45.3c-4.6,2.3-10.6,4-18.3,5.2c-6.2,1-20,0.8-27.1-0.3c-9.3-1.4-8.5-1.9-10.1,5.1   c-2.1,9.5-3.2,19.5-3.6,33.2c-0.3,11.3,0.4,30.9,1.4,38.1c0.4,2.5,0.4,2.5,3.5,3.1c28,5.7,59.6,7.6,75.2,4.5l1.5-0.3v-12.2   c0-12.7,0.7-18.2,3.4-27c3.1-10.1,6.3-15.6,13.4-22.7c5.7-5.7,9.9-8.7,19-13.3c7.7-3.9,9.8-4.8,19.5-7.9l7.1-2.2V476   c0-14.8,0.7-24,2.4-32c0.6-2.8,1-5.2,1-5.2s-2.2,0.2-4.9,0.5c-8.2,1-32.9-0.2-44-2.3C197.6,436.7,197.5,436.8,195.8,440.8z"></path><path d="M499.7,437.4c-11.7,2-32.9,2.9-41.6,1.7c-2.3-0.3-4.2-0.5-4.3-0.4s0.4,2.4,1,5.2c1.7,8.1,2.4,17.2,2.4,32v13.6l7.1,2.2   c9.6,3.1,11.8,4,19.5,7.9c9,4.6,13.3,7.5,19,13.3c7.1,7.1,10.3,12.6,13.4,22.7c2.7,8.6,3.3,14.2,3.3,27v12.2l1.6,0.3   c13.6,2.7,37.8,1.7,63.4-2.4c15.7-2.6,14.9-2.3,15.3-5.2c1-7.2,1.7-26.8,1.4-38.1c-0.4-13.7-1.5-23.6-3.6-33.2   c-1.6-7-0.8-6.6-10.1-5.1c-16.4,2.5-34.9,0.4-46-5.2c-13.3-6.8-25.4-22.3-35.2-45c-1.1-2.6-2.1-4-2.7-4   C503.1,436.9,501.4,437.1,499.7,437.4z"></path><path d="M290.3,475.2c-7.9,4.6-20.4,9.5-39.6,15.4l-3,0.9l-0.2,10.6c-0.6,35.9-11,54.2-37.9,66.9c-6.2,2.9-19.2,7.2-21.9,7.2   c-2.1,0-2.2,1.1-1.1,6.8c2.2,10.6,5.6,21.3,10.9,33.8c4.4,10.2,16.6,34.3,17.7,34.7c1.3,0.5,22.3-5.1,34.8-9.2   c6.3-2.1,14.8-5.3,18.9-7.2c7.5-3.4,18.9-9.5,20.5-10.9c0.7-0.7,0.2-2.1-3.1-8.9c-4.6-9.4-6.5-14.7-8.3-23.4   c-3.7-18.9,0.1-33.6,13.2-50.4c3.5-4.4,12.7-13.8,18-18.4l3.1-2.7l-4-8.4c-6.5-14.1-9.5-22.1-12.1-32.7l-1.6-6.6L290.3,475.2z"></path><path d="M406.3,477.3c-2.1,9.6-7.2,23.4-14.2,37.9l-2.5,5.1l3.2,2.7c12.1,10.4,22.8,23.2,27.3,32.9c5.2,11.3,6.5,22.7,3.9,35.6   c-1.7,8.7-3.7,14.4-8.3,23.6c-3.3,6.8-3.8,8.2-3.1,8.9c1.6,1.4,13,7.5,20.5,10.9c4.1,1.9,12.7,5.1,18.9,7.2   c12.5,4.1,33.5,9.7,34.8,9.2c1-0.4,13.3-24.6,17.5-34.6c5.5-13.1,9-23.8,11-34.3c1.1-5.7,0.9-6.4-1.6-6.5c-2.3,0-15.8-4.6-21.4-7.2   c-26.9-12.7-37.1-30.8-37.9-66.8l-0.2-10.7l-3-0.8c-19.1-5.8-31.7-10.7-39.7-15.5l-4.3-2.5L406.3,477.3z"></path><path d="M350.4,484.9c0,0.3-1.7,2.8-3.9,5.6c-5.7,7.6-14.8,16.6-28.8,28.7l-2.2,1.9l1.9,3.8c4.6,9.6,8.1,19.7,10.2,30   c1.7,8.4,1.4,20.9-0.7,27.4c-4.1,13-13.9,26.2-27.1,36.7c-2.5,2-4.9,3.9-5.4,4.3c-0.7,0.7-0.1,1.7,3.4,6.7   c7.1,9.9,14.5,17.9,26.7,28.8c9.2,8.3,24.3,20.5,26.1,21.2c0.5,0.2,2.5-1.1,4.7-2.8c11.8-9.2,14.8-11.8,22-18.2   c12.4-11,19.8-19.1,27-29.1c3.6-4.9,4.2-6,3.4-6.7c-0.5-0.4-2.9-2.4-5.4-4.3c-13.4-10.6-23-23.8-27.3-37c-1.2-4-1.4-5.7-1.4-14.5   c0-8.3,0.2-10.9,1.4-15.7c2.3-9.3,5.6-18.6,9.8-27.3l1.7-3.6l-2.2-1.9c-13.8-11.9-23.5-21.5-29.1-28.9c-1.9-2.7-3.6-5-3.6-5.3   s-0.2-0.5-0.6-0.5C350.7,484.4,350.4,484.6,350.4,484.9z"></path><path d="M243.4,492.5c-0.3,0.1-3.7,1.2-7.5,2.4c-8.2,2.7-20.1,8.2-25.8,12c-9.6,6.3-17,15.6-20.6,25.5c-3.6,10-4.5,15.4-4.5,28.9   c-0.1,6.7,0.1,12.3,0.4,12.5c1,1,16-3.6,23.7-7.3c24.8-11.9,34.7-28.5,36.2-60.7c0.4-8,0-13.8-0.8-13.7   C244.2,492.3,243.7,492.4,243.4,492.5z"></path><path d="M456.9,503.2c0.7,34.1,10.5,51.2,36.2,63.5c7.7,3.7,22.7,8.3,23.7,7.3c0.2-0.2,0.4-5.8,0.4-12.5c0-13.6-0.8-18.9-4.5-28.9   c-3.6-9.9-11.1-19.2-20.5-25.4c-7.6-5.1-24.7-12.4-33.9-14.5l-1.6-0.4L456.9,503.2z"></path><path d="M307,528.3c-6.2,5.7-13,13-16.9,18.3c-3.4,4.6-8.2,14.5-9.6,20.1c-2.4,9.3-1.3,23.3,2.8,35.6c1.7,5.3,7.7,17.9,8.9,18.9   c0.5,0.5,1.7-0.2,4.6-2.4c7.8-6.1,15.1-13.8,20.3-21.6c6.9-10.4,9.3-17.7,9.3-28.9c0.1-8.9-1-15.2-4.3-25.3   c-2.6-8-7.8-19.8-8.7-19.9C313,523,310.1,525.4,307,528.3z"></path><path d="M385.2,529.4c-3.7,7.9-7.2,18.8-8.6,25.9c-1.6,8.3-1.3,19,0.6,25.7c3.1,10.7,9.6,20.5,20,30.7c6.3,6.1,11.8,10.2,12.7,9.4   c1.2-1,7.2-13.6,8.9-18.9c4.1-12.2,5.2-26.2,2.8-35.6c-1.4-5.7-6.2-15.5-9.6-20.1c-5.5-7.4-20.9-23-23.2-23.4   C388.4,523.1,386.8,525.8,385.2,529.4z"></path></g></svg>