<svg xmlns="http://www.w3.org/2000/svg" width="512" height="512" viewBox="0 0 128 128"><g><path d="M115.842,54.4A54.827,54.827,0,0,0,104.789,35.96a13.593,13.593,0,0,0-10.08-4.395H69.4L75.821,11.5H95.25A1.749,1.749,0,0,0,97,9.753v-8A1.749,1.749,0,0,0,95.25,0H68.706a1.75,1.75,0,0,0-1.667,1.216L57.32,31.565H33.291a13.593,13.593,0,0,0-10.08,4.395A54.82,54.82,0,0,0,12.16,54.393l0,.005a55.062,55.062,0,1,0,103.685,0ZM69.983,3.5H93.5V8H74.544a1.75,1.75,0,0,0-1.667,1.216L65.721,31.565H61ZM25.805,38.31a10.086,10.086,0,0,1,7.486-3.245H94.709A10.085,10.085,0,0,1,102.2,38.31a51.316,51.316,0,0,1,9.618,15.363,10.942,10.942,0,0,1-1.129.077c-3.3,0-4.88-1.222-6.715-2.636-2.045-1.577-4.364-3.364-8.852-3.364s-6.805,1.787-8.849,3.364c-1.835,1.414-3.419,2.636-6.714,2.636s-4.879-1.222-6.714-2.636c-2.045-1.577-4.363-3.364-8.85-3.364s-6.8,1.787-8.847,3.364c-1.834,1.414-3.417,2.636-6.711,2.636s-4.878-1.222-6.712-2.636c-2.045-1.577-4.363-3.364-8.85-3.364s-6.8,1.787-8.849,3.364C22.187,52.528,20.6,53.75,17.31,53.75a11.113,11.113,0,0,1-1.123-.076A51.321,51.321,0,0,1,25.805,38.31ZM64,124.5A51.549,51.549,0,0,1,14.947,57.061a14.1,14.1,0,0,0,2.363.189c4.486,0,6.8-1.787,8.849-3.364,1.834-1.414,3.417-2.636,6.711-2.636s4.878,1.222,6.712,2.636c2.046,1.577,4.363,3.364,8.85,3.364s6.8-1.787,8.848-3.364c1.834-1.414,3.417-2.636,6.71-2.636s4.878,1.222,6.713,2.636c2.045,1.577,4.363,3.364,8.851,3.364s6.8-1.787,8.85-3.364c1.835-1.414,3.419-2.636,6.713-2.636s4.88,1.222,6.715,2.636c2.045,1.577,4.363,3.364,8.852,3.364a14.07,14.07,0,0,0,2.369-.19A51.553,51.553,0,0,1,64,124.5Z"/><path d="M101.118,95.306a1.749,1.749,0,0,0-2.425.5A41.511,41.511,0,0,1,64,114.5a1.75,1.75,0,0,0,0,3.5,45,45,0,0,0,37.613-20.27A1.749,1.749,0,0,0,101.118,95.306Z"/></g></svg>